<mxfile host="app.diagrams.net" agent="Mozilla/5.0 (Windows NT 10.0; Win64; x64) AppleWebKit/537.36 (KHTML, like Gecko) Chrome/126.0.0.0 Safari/537.36" version="24.8.0">
  <diagram name="Страница — 1" id="AhsqC-a8phbSn4TLKKLI">
    <mxGraphModel dx="1760" dy="936" grid="0" gridSize="10" guides="1" tooltips="1" connect="1" arrows="1" fold="1" page="1" pageScale="1" pageWidth="827" pageHeight="1169" background="#F9F2FF" math="0" shadow="0">
      <root>
        <mxCell id="0" />
        <mxCell id="1" parent="0" />
        <mxCell id="f-fRrLMS72BcWbw2DPmJ-4" value="&lt;font style=&quot;font-size: 14px;&quot;&gt;&lt;b&gt;Как &lt;/b&gt;пользователь мобильного приложения Lamoda,&lt;br&gt;&lt;b&gt;Я хочу&lt;/b&gt; иметь возможность просматривать акционные предложения,&lt;br&gt;&lt;b&gt;Чтобы &lt;/b&gt;совершить выгодный заказ&lt;/font&gt;" style="rounded=1;whiteSpace=wrap;html=1;glass=0;sketch=1;curveFitting=1;jiggle=2;shadow=0;fillColor=#e1d5e7;strokeColor=#9673a6;" parent="1" vertex="1">
          <mxGeometry x="494" y="10" width="410" height="145" as="geometry" />
        </mxCell>
        <mxCell id="lJF0jtRhuvwRpikgw8jF-5" value="" style="rounded=1;whiteSpace=wrap;html=1;" parent="1" vertex="1">
          <mxGeometry x="625" y="211.0300000000001" width="216" height="355" as="geometry" />
        </mxCell>
        <mxCell id="lJF0jtRhuvwRpikgw8jF-13" value="Мужчинам" style="rounded=0;whiteSpace=wrap;html=1;" parent="1" vertex="1">
          <mxGeometry x="709" y="261.0300000000001" width="64" height="35" as="geometry" />
        </mxCell>
        <mxCell id="lJF0jtRhuvwRpikgw8jF-17" value="" style="rounded=0;whiteSpace=wrap;html=1;strokeColor=#FF0000;strokeWidth=3;" parent="1" vertex="1">
          <mxGeometry x="630" y="257.5300000000001" width="74" height="42" as="geometry" />
        </mxCell>
        <mxCell id="lJF0jtRhuvwRpikgw8jF-12" value="Женщинам" style="rounded=0;whiteSpace=wrap;html=1;" parent="1" vertex="1">
          <mxGeometry x="632.5" y="261.0300000000001" width="69" height="35" as="geometry" />
        </mxCell>
        <mxCell id="lJF0jtRhuvwRpikgw8jF-14" value="Детям" style="rounded=0;whiteSpace=wrap;html=1;" parent="1" vertex="1">
          <mxGeometry x="778.75" y="261.0300000000001" width="57.25" height="35" as="geometry" />
        </mxCell>
        <mxCell id="lJF0jtRhuvwRpikgw8jF-16" value="" style="rounded=1;whiteSpace=wrap;html=1;" parent="1" vertex="1">
          <mxGeometry x="58" y="211" width="216" height="355" as="geometry" />
        </mxCell>
        <mxCell id="lJF0jtRhuvwRpikgw8jF-25" value="" style="rounded=0;whiteSpace=wrap;html=1;strokeColor=#FF0000;strokeWidth=3;" parent="1" vertex="1">
          <mxGeometry x="63.5" y="268.5" width="91" height="46" as="geometry" />
        </mxCell>
        <mxCell id="lJF0jtRhuvwRpikgw8jF-20" value="Лучшие акции" style="rounded=0;whiteSpace=wrap;html=1;" parent="1" vertex="1">
          <mxGeometry x="66" y="273" width="86" height="37" as="geometry" />
        </mxCell>
        <mxCell id="lJF0jtRhuvwRpikgw8jF-21" value="Новинки" style="rounded=0;whiteSpace=wrap;html=1;" parent="1" vertex="1">
          <mxGeometry x="67" y="321" width="86" height="34" as="geometry" />
        </mxCell>
        <mxCell id="lJF0jtRhuvwRpikgw8jF-22" value="Распродажа" style="rounded=0;whiteSpace=wrap;html=1;" parent="1" vertex="1">
          <mxGeometry x="66" y="366" width="87" height="37" as="geometry" />
        </mxCell>
        <mxCell id="lJF0jtRhuvwRpikgw8jF-30" value="" style="rounded=1;whiteSpace=wrap;html=1;" parent="1" vertex="1">
          <mxGeometry x="910" y="211" width="216" height="355" as="geometry" />
        </mxCell>
        <mxCell id="lJF0jtRhuvwRpikgw8jF-31" value="&lt;font style=&quot;font-size: 11px;&quot;&gt;Акционный товар 1&lt;/font&gt;" style="whiteSpace=wrap;html=1;aspect=fixed;" parent="1" vertex="1">
          <mxGeometry x="922.5" y="282.5" width="81" height="81" as="geometry" />
        </mxCell>
        <mxCell id="lJF0jtRhuvwRpikgw8jF-32" value="&lt;font style=&quot;font-size: 11px;&quot;&gt;Акционный товар 2&lt;/font&gt;" style="whiteSpace=wrap;html=1;aspect=fixed;" parent="1" vertex="1">
          <mxGeometry x="1032" y="281.5" width="83" height="83" as="geometry" />
        </mxCell>
        <mxCell id="lJF0jtRhuvwRpikgw8jF-33" value="&lt;font style=&quot;font-size: 11px;&quot;&gt;Акционный товар 3&lt;/font&gt;" style="whiteSpace=wrap;html=1;aspect=fixed;" parent="1" vertex="1">
          <mxGeometry x="922.5" y="391" width="84" height="84" as="geometry" />
        </mxCell>
        <mxCell id="lJF0jtRhuvwRpikgw8jF-34" value="&lt;font style=&quot;font-size: 11px;&quot;&gt;Акционный товар n&lt;/font&gt;" style="whiteSpace=wrap;html=1;aspect=fixed;" parent="1" vertex="1">
          <mxGeometry x="1032" y="390" width="85" height="85" as="geometry" />
        </mxCell>
        <mxCell id="lJF0jtRhuvwRpikgw8jF-46" value="Корзина" style="whiteSpace=wrap;html=1;aspect=fixed;" parent="1" vertex="1">
          <mxGeometry x="989" y="503" width="55" height="55" as="geometry" />
        </mxCell>
        <mxCell id="lJF0jtRhuvwRpikgw8jF-57" value="" style="whiteSpace=wrap;html=1;aspect=fixed;strokeColor=#FF0000;strokeWidth=2;" parent="1" vertex="1">
          <mxGeometry x="951" y="446.75" width="29.5" height="29.5" as="geometry" />
        </mxCell>
        <mxCell id="lJF0jtRhuvwRpikgw8jF-48" value="&lt;font style=&quot;font-size: 8px;&quot;&gt;Купить&lt;/font&gt;" style="whiteSpace=wrap;html=1;aspect=fixed;" parent="1" vertex="1">
          <mxGeometry x="953.25" y="449" width="25" height="25" as="geometry" />
        </mxCell>
        <mxCell id="lJF0jtRhuvwRpikgw8jF-49" value="&lt;font style=&quot;font-size: 8px;&quot;&gt;Купить&lt;/font&gt;" style="whiteSpace=wrap;html=1;aspect=fixed;" parent="1" vertex="1">
          <mxGeometry x="1065" y="446.75" width="25" height="25" as="geometry" />
        </mxCell>
        <mxCell id="lJF0jtRhuvwRpikgw8jF-50" value="&lt;font style=&quot;font-size: 8px;&quot;&gt;Купить&lt;/font&gt;" style="whiteSpace=wrap;html=1;aspect=fixed;" parent="1" vertex="1">
          <mxGeometry x="1062" y="338" width="25" height="25" as="geometry" />
        </mxCell>
        <mxCell id="lJF0jtRhuvwRpikgw8jF-51" value="&lt;font style=&quot;font-size: 8px;&quot;&gt;Купить&lt;/font&gt;" style="whiteSpace=wrap;html=1;aspect=fixed;" parent="1" vertex="1">
          <mxGeometry x="950.5" y="338" width="25" height="25" as="geometry" />
        </mxCell>
        <mxCell id="lJF0jtRhuvwRpikgw8jF-53" value="Назад" style="rounded=1;whiteSpace=wrap;html=1;" parent="1" vertex="1">
          <mxGeometry x="924" y="224" width="43" height="30" as="geometry" />
        </mxCell>
        <mxCell id="lJF0jtRhuvwRpikgw8jF-54" value="Назад" style="rounded=1;whiteSpace=wrap;html=1;" parent="1" vertex="1">
          <mxGeometry x="638" y="222.0300000000001" width="43" height="30" as="geometry" />
        </mxCell>
        <mxCell id="KlGLypBca4jqxsCxjCPI-1" value="" style="rounded=1;whiteSpace=wrap;html=1;" parent="1" vertex="1">
          <mxGeometry x="338" y="211" width="216" height="355" as="geometry" />
        </mxCell>
        <mxCell id="KlGLypBca4jqxsCxjCPI-2" value="Назад" style="rounded=1;whiteSpace=wrap;html=1;" parent="1" vertex="1">
          <mxGeometry x="347" y="226" width="43" height="30" as="geometry" />
        </mxCell>
        <mxCell id="KlGLypBca4jqxsCxjCPI-12" value="" style="rounded=0;whiteSpace=wrap;html=1;strokeColor=#FF0000;strokeWidth=2;" parent="1" vertex="1">
          <mxGeometry x="346" y="278" width="92" height="41" as="geometry" />
        </mxCell>
        <mxCell id="KlGLypBca4jqxsCxjCPI-3" value="Скидки до 60% на бренд" style="rounded=0;whiteSpace=wrap;html=1;" parent="1" vertex="1">
          <mxGeometry x="347" y="280.5" width="86" height="34" as="geometry" />
        </mxCell>
        <mxCell id="KlGLypBca4jqxsCxjCPI-4" value="Скидки на день рождения" style="rounded=0;whiteSpace=wrap;html=1;" parent="1" vertex="1">
          <mxGeometry x="346" y="336" width="88" height="34" as="geometry" />
        </mxCell>
        <mxCell id="KlGLypBca4jqxsCxjCPI-5" value="Черная пятница&amp;nbsp;" style="rounded=0;whiteSpace=wrap;html=1;" parent="1" vertex="1">
          <mxGeometry x="346" y="388" width="86" height="34" as="geometry" />
        </mxCell>
        <mxCell id="KlGLypBca4jqxsCxjCPI-6" value="Всё по 800" style="rounded=0;whiteSpace=wrap;html=1;" parent="1" vertex="1">
          <mxGeometry x="347" y="440.25" width="86" height="34" as="geometry" />
        </mxCell>
        <mxCell id="KlGLypBca4jqxsCxjCPI-7" value="" style="endArrow=classic;html=1;rounded=0;exitX=0.75;exitY=0;exitDx=0;exitDy=0;entryX=0;entryY=0.5;entryDx=0;entryDy=0;edgeStyle=orthogonalEdgeStyle;strokeWidth=2;strokeColor=#FF0000;" parent="1" source="lJF0jtRhuvwRpikgw8jF-25" target="KlGLypBca4jqxsCxjCPI-1" edge="1">
          <mxGeometry width="50" height="50" relative="1" as="geometry">
            <mxPoint x="165" y="190" as="sourcePoint" />
            <mxPoint x="215" y="140" as="targetPoint" />
            <Array as="points">
              <mxPoint x="132" y="176" />
              <mxPoint x="294" y="176" />
              <mxPoint x="294" y="389" />
            </Array>
          </mxGeometry>
        </mxCell>
        <mxCell id="KlGLypBca4jqxsCxjCPI-26" value="переходим в раздел лучших акций" style="edgeLabel;html=1;align=center;verticalAlign=middle;resizable=0;points=[];" parent="KlGLypBca4jqxsCxjCPI-7" vertex="1" connectable="0">
          <mxGeometry x="-0.3556" y="-1" relative="1" as="geometry">
            <mxPoint as="offset" />
          </mxGeometry>
        </mxCell>
        <mxCell id="KlGLypBca4jqxsCxjCPI-24" value="" style="endArrow=classic;html=1;rounded=0;exitX=0.75;exitY=0;exitDx=0;exitDy=0;entryX=0;entryY=0.5;entryDx=0;entryDy=0;edgeStyle=orthogonalEdgeStyle;strokeColor=#FF0000;strokeWidth=2;" parent="1" source="KlGLypBca4jqxsCxjCPI-12" target="lJF0jtRhuvwRpikgw8jF-5" edge="1">
          <mxGeometry width="50" height="50" relative="1" as="geometry">
            <mxPoint x="495" y="191" as="sourcePoint" />
            <mxPoint x="545" y="141" as="targetPoint" />
            <Array as="points">
              <mxPoint x="415" y="173" />
              <mxPoint x="582" y="173" />
              <mxPoint x="582" y="389" />
            </Array>
          </mxGeometry>
        </mxCell>
        <mxCell id="KlGLypBca4jqxsCxjCPI-27" value="выбираем интересующую секцию" style="edgeLabel;html=1;align=center;verticalAlign=middle;resizable=0;points=[];" parent="KlGLypBca4jqxsCxjCPI-24" vertex="1" connectable="0">
          <mxGeometry x="-0.2686" y="-3" relative="1" as="geometry">
            <mxPoint as="offset" />
          </mxGeometry>
        </mxCell>
        <mxCell id="KlGLypBca4jqxsCxjCPI-28" value="Одежда" style="rounded=0;whiteSpace=wrap;html=1;" parent="1" vertex="1">
          <mxGeometry x="632.5" y="314.5" width="70" height="27" as="geometry" />
        </mxCell>
        <mxCell id="KlGLypBca4jqxsCxjCPI-33" value="" style="rounded=0;whiteSpace=wrap;html=1;strokeColor=#FF0000;strokeWidth=2;" parent="1" vertex="1">
          <mxGeometry x="632.5" y="351.5" width="74" height="34" as="geometry" />
        </mxCell>
        <mxCell id="KlGLypBca4jqxsCxjCPI-29" value="Обувь" style="rounded=0;whiteSpace=wrap;html=1;" parent="1" vertex="1">
          <mxGeometry x="634" y="355" width="70" height="27" as="geometry" />
        </mxCell>
        <mxCell id="KlGLypBca4jqxsCxjCPI-30" value="Аксессуары" style="rounded=0;whiteSpace=wrap;html=1;" parent="1" vertex="1">
          <mxGeometry x="632.5" y="395" width="70" height="27" as="geometry" />
        </mxCell>
        <mxCell id="KlGLypBca4jqxsCxjCPI-31" value="Красота" style="rounded=0;whiteSpace=wrap;html=1;" parent="1" vertex="1">
          <mxGeometry x="632.5" y="434" width="70" height="27" as="geometry" />
        </mxCell>
        <mxCell id="KlGLypBca4jqxsCxjCPI-32" value="Дом" style="rounded=0;whiteSpace=wrap;html=1;" parent="1" vertex="1">
          <mxGeometry x="632.5" y="473" width="70" height="27" as="geometry" />
        </mxCell>
        <mxCell id="KlGLypBca4jqxsCxjCPI-35" value="Фильтр" style="rounded=1;whiteSpace=wrap;html=1;" parent="1" vertex="1">
          <mxGeometry x="1052" y="244.5" width="62" height="26" as="geometry" />
        </mxCell>
        <mxCell id="KlGLypBca4jqxsCxjCPI-38" value="" style="endArrow=none;dashed=1;html=1;dashPattern=1 3;strokeWidth=2;rounded=0;exitX=1;exitY=0.5;exitDx=0;exitDy=0;" parent="1" source="KlGLypBca4jqxsCxjCPI-35" edge="1">
          <mxGeometry width="50" height="50" relative="1" as="geometry">
            <mxPoint x="1153" y="250" as="sourcePoint" />
            <mxPoint x="1148" y="258" as="targetPoint" />
          </mxGeometry>
        </mxCell>
        <mxCell id="KlGLypBca4jqxsCxjCPI-39" value="" style="endArrow=none;html=1;rounded=0;exitX=0.038;exitY=1.134;exitDx=0;exitDy=0;exitPerimeter=0;" parent="1" source="KlGLypBca4jqxsCxjCPI-47" edge="1">
          <mxGeometry width="50" height="50" relative="1" as="geometry">
            <mxPoint x="1148" y="326" as="sourcePoint" />
            <mxPoint x="1148" y="192.5" as="targetPoint" />
          </mxGeometry>
        </mxCell>
        <mxCell id="KlGLypBca4jqxsCxjCPI-40" value="" style="endArrow=none;html=1;rounded=0;" parent="1" edge="1">
          <mxGeometry width="50" height="50" relative="1" as="geometry">
            <mxPoint x="1148" y="192" as="sourcePoint" />
            <mxPoint x="1173" y="192" as="targetPoint" />
          </mxGeometry>
        </mxCell>
        <mxCell id="KlGLypBca4jqxsCxjCPI-41" value="" style="endArrow=none;html=1;rounded=0;" parent="1" edge="1">
          <mxGeometry width="50" height="50" relative="1" as="geometry">
            <mxPoint x="1150" y="299" as="sourcePoint" />
            <mxPoint x="1175" y="299" as="targetPoint" />
          </mxGeometry>
        </mxCell>
        <mxCell id="KlGLypBca4jqxsCxjCPI-42" value="- цвет" style="text;html=1;align=center;verticalAlign=middle;resizable=0;points=[];autosize=1;strokeColor=none;fillColor=none;" parent="1" vertex="1">
          <mxGeometry x="1147" y="194" width="50" height="26" as="geometry" />
        </mxCell>
        <mxCell id="KlGLypBca4jqxsCxjCPI-43" value="- размер" style="text;html=1;align=center;verticalAlign=middle;resizable=0;points=[];autosize=1;strokeColor=none;fillColor=none;" parent="1" vertex="1">
          <mxGeometry x="1147" y="220" width="66" height="26" as="geometry" />
        </mxCell>
        <mxCell id="KlGLypBca4jqxsCxjCPI-46" value="- бренд" style="text;html=1;align=center;verticalAlign=middle;resizable=0;points=[];autosize=1;strokeColor=none;fillColor=none;" parent="1" vertex="1">
          <mxGeometry x="1147" y="244.5" width="59" height="26" as="geometry" />
        </mxCell>
        <mxCell id="KlGLypBca4jqxsCxjCPI-47" value="- цена" style="text;html=1;align=center;verticalAlign=middle;resizable=0;points=[];autosize=1;strokeColor=none;fillColor=none;" parent="1" vertex="1">
          <mxGeometry x="1147" y="268.51" width="52" height="26" as="geometry" />
        </mxCell>
        <mxCell id="DQEnEy_YY9lBbLi0-GhG-3" value="" style="endArrow=classic;html=1;rounded=0;exitX=1;exitY=0.5;exitDx=0;exitDy=0;entryX=0.5;entryY=0;entryDx=0;entryDy=0;edgeStyle=orthogonalEdgeStyle;strokeColor=#FF0000;strokeWidth=2;" edge="1" parent="1" source="KlGLypBca4jqxsCxjCPI-33" target="lJF0jtRhuvwRpikgw8jF-30">
          <mxGeometry width="50" height="50" relative="1" as="geometry">
            <mxPoint x="861" y="210" as="sourcePoint" />
            <mxPoint x="911" y="160" as="targetPoint" />
            <Array as="points">
              <mxPoint x="857" y="369" />
              <mxPoint x="857" y="190" />
              <mxPoint x="1018" y="190" />
            </Array>
          </mxGeometry>
        </mxCell>
        <mxCell id="DQEnEy_YY9lBbLi0-GhG-4" value="переходим к просмотру женской обуви" style="edgeLabel;html=1;align=center;verticalAlign=middle;resizable=0;points=[];" vertex="1" connectable="0" parent="DQEnEy_YY9lBbLi0-GhG-3">
          <mxGeometry x="0.4969" y="1" relative="1" as="geometry">
            <mxPoint x="21" y="-3" as="offset" />
          </mxGeometry>
        </mxCell>
      </root>
    </mxGraphModel>
  </diagram>
</mxfile>
